# xmcd
#
# Track frame offsets:
#	150
#	14355
#	35095
#	53505
#	68480
#	84935
#	100945
#	123505
#	144152
#	157650
#	170095
#	182552
#
# Disc length: 2650 seconds
#
# Revision: 0
# Processed by: cddbd v1.5.2PL0 Copyright (c) Steve Scherf et al.
# Submitted via: audiograbber 1.83.01
#
DISCID=8c0a580c
DTITLE=Carole King - Writer
DYEAR=1900
DGENRE=Oldies
TTITLE0=Spaceship Races
TTITLE1=No Easy Way Down
TTITLE2=Child Of Mine
TTITLE3=Goin' Back
TTITLE4=To Love
TTITLE5=What Have You Got To Lose
TTITLE6=Eventually
TTITLE7=Raspberry Jam
TTITLE8=Can't You Be Real
TTITLE9=I Can't Hear You No More
TTITLE10=Sweet Sweetheart
TTITLE11=Up On The Roof
EXTD=
EXTT0=
EXTT1=
EXTT2=
EXTT3=
EXTT4=
EXTT5=
EXTT6=
EXTT7=
EXTT8=
EXTT9=
EXTT10=
EXTT11=
PLAYORDER=
